<?xml version="1.0" encoding="UTF-8" standalone="no"?>
<!-- Created with Inkscape (http://www.inkscape.org/) -->

<svg
   width="31.805073mm"
   height="31.805073mm"
   viewBox="0 0 31.805073 31.805073"
   version="1.1"
   id="svg5"
   xml:space="preserve"
   inkscape:version="1.2.1 (9c6d41e410, 2022-07-14)"
   sodipodi:docname="diabetes-vis-logo-notext.svg"
   xmlns:inkscape="http://www.inkscape.org/namespaces/inkscape"
   xmlns:sodipodi="http://sodipodi.sourceforge.net/DTD/sodipodi-0.dtd"
   xmlns="http://www.w3.org/2000/svg"
   xmlns:svg="http://www.w3.org/2000/svg"><sodipodi:namedview
     id="namedview7"
     pagecolor="#ffffff"
     bordercolor="#666666"
     borderopacity="1.0"
     inkscape:showpageshadow="2"
     inkscape:pageopacity="0.0"
     inkscape:pagecheckerboard="0"
     inkscape:deskcolor="#d1d1d1"
     inkscape:document-units="mm"
     showgrid="false"
     inkscape:zoom="1.4142136"
     inkscape:cx="189.85817"
     inkscape:cy="82.731493"
     inkscape:window-width="1920"
     inkscape:window-height="1017"
     inkscape:window-x="-8"
     inkscape:window-y="-8"
     inkscape:window-maximized="1"
     inkscape:current-layer="layer1" /><defs
     id="defs2" /><g
     inkscape:label="Ebene 1"
     inkscape:groupmode="layer"
     id="layer1"
     transform="translate(-5.594728,-1.9890586)"><g
       id="g328"
       transform="translate(-14.873549,-4.3965837)"><path
         id="path300"
         style="fill:#568bd7;fill-opacity:1;stroke:none;stroke-width:0.284882;stroke-linecap:round"
         d="M 36.370811,7.0004326 A 15.287899,15.287899 0 0 0 21.082802,22.288179 15.287899,15.287899 0 0 0 36.370811,37.575924 15.287899,15.287899 0 0 0 51.658824,22.288179 15.287899,15.287899 0 0 0 36.370811,7.0004326 Z M 36.37054,11.031586 A 11.256641,11.256641 0 0 1 47.627414,22.288179 11.256641,11.256641 0 0 1 36.37054,33.545044 11.256641,11.256641 0 0 1 25.114217,22.288179 11.256641,11.256641 0 0 1 36.37054,11.031586 Z" /><path
         id="rect3947"
         style="fill:#e8e8e0;fill-opacity:1;stroke:none;stroke-width:0.284881;stroke-linecap:round"
         d="m 27.120876,25.871296 a 9.925403,9.925403 0 0 0 1.00939,1.939488 h 16.4868 a 9.925403,9.925403 0 0 0 1.009658,-1.939488 z" /><path
         id="rect1098"
         style="fill:#e8e8e0;fill-opacity:1;stroke:none;stroke-width:0.284881;stroke-linecap:round"
         d="m 26.46723,22.928288 a 9.925403,9.925403 0 0 0 0.322533,1.939502 h 19.164591 a 9.925403,9.925403 0 0 0 0.32066,-1.939502 z" /><path
         id="rect1096"
         style="fill:#78d3a8;fill-opacity:1;stroke:none;stroke-width:0.284881;stroke-linecap:round"
         d="m 26.722255,19.985287 a 9.925403,9.925403 0 0 0 -0.264398,1.93975 h 19.830827 a 9.925403,9.925403 0 0 0 -0.26361,-1.93975 z" /><g
         id="g7749"
         transform="matrix(0.51839209,0,0,0.51839209,3.2268716,-81.178466)"
         style="stroke-width:3.73571"><path
           style="fill:#bc9be9;fill-opacity:1;stroke:none;stroke-width:0.988401px;stroke-linecap:butt;stroke-linejoin:miter;stroke-opacity:1"
           d="m 55.291586,198.89096 c 0,0 0.32255,-7.09621 2.58043,-10.70883 H 68.83889 c 2.70947,2.06437 2.38691,7.35427 3.74164,10.70883 z"
           id="path3019"
           sodipodi:nodetypes="ccccc" /><path
           style="fill:#8b63d5;fill-opacity:1;stroke:none;stroke-width:0.988401px;stroke-linecap:butt;stroke-linejoin:miter;stroke-opacity:1"
           d="m 57.869266,198.89096 c 0,0 1.138854,-6.21323 3.512444,-6.79681 1.24916,-0.3073 3.57283,2.93026 5.29147,3.55806 2.08835,0.76285 3.14751,3.23875 3.14751,3.23875 z"
           id="path3600"
           sodipodi:nodetypes="csscc" /></g><rect
         style="fill:#fbd786;fill-opacity:1;stroke:none;stroke-width:0.284881;stroke-linecap:round"
         id="rect3949"
         width="4.6818771"
         height="1.939635"
         x="28.794949"
         y="22.92827" /><rect
         style="fill:#fbd786;fill-opacity:1;stroke:none;stroke-width:0.284881;stroke-linecap:round"
         id="rect3951"
         width="4.6818771"
         height="1.939635"
         x="39.467388"
         y="22.92827" /><rect
         style="fill:#87ade3;fill-opacity:1;stroke:none;stroke-width:0.284881;stroke-linecap:round"
         id="rect6169"
         width="6.2898774"
         height="1.939635"
         x="31.919926"
         y="25.871195" /></g></g></svg>
