<?xml version="1.0" encoding="UTF-8" standalone="no"?>
<!-- Created with Inkscape (http://www.inkscape.org/) -->

<svg
   width="65.863571mm"
   height="14.678167mm"
   viewBox="0 0 65.863571 14.678167"
   version="1.1"
   id="svg471"
   inkscape:version="1.2.1 (9c6d41e410, 2022-07-14)"
   sodipodi:docname="marjorie-text.svg"
   xmlns:inkscape="http://www.inkscape.org/namespaces/inkscape"
   xmlns:sodipodi="http://sodipodi.sourceforge.net/DTD/sodipodi-0.dtd"
   xmlns="http://www.w3.org/2000/svg"
   xmlns:svg="http://www.w3.org/2000/svg">
  <sodipodi:namedview
     id="namedview473"
     pagecolor="#ffffff"
     bordercolor="#666666"
     borderopacity="1.0"
     inkscape:showpageshadow="2"
     inkscape:pageopacity="0.0"
     inkscape:pagecheckerboard="0"
     inkscape:deskcolor="#d1d1d1"
     inkscape:document-units="mm"
     showgrid="false"
     inkscape:zoom="4.2179991"
     inkscape:cx="127.54863"
     inkscape:cy="62.11476"
     inkscape:window-width="1920"
     inkscape:window-height="1017"
     inkscape:window-x="-8"
     inkscape:window-y="-8"
     inkscape:window-maximized="1"
     inkscape:current-layer="layer1" />
  <defs
     id="defs468" />
  <g
     inkscape:label="Ebene 1"
     inkscape:groupmode="layer"
     id="layer1"
     transform="translate(-0.25090885,-1.2545443)">
    <path
       d="M 3.6754276,6.301713 6.449959,11.004095 9.2244904,6.301713 9.8627615,11.850776 H 11.45193 L 10.201438,2.2766996 6.449959,8.4640316 2.7115074,2.2766996 1.4610138,11.850776 h 1.589168 z"
       style="font-weight:500;font-size:6.72636px;line-height:1.25;font-family:'Jost*';-inkscape-font-specification:'Jost* Medium';text-align:end;letter-spacing:0.235423px;text-anchor:end;fill:#888a85;stroke-width:0.51238"
       id="path12864" />
    <path
       d="m 19.619211,11.850776 h 1.745494 L 16.89679,2.2245869 12.44191,11.850776 h 1.732454 l 1.042077,-2.3446648 h 3.347673 z M 16.89679,5.3117461 18.147282,8.2035068 h -2.487958 z"
       style="font-weight:500;font-size:6.72636px;line-height:1.25;font-family:'Jost*';-inkscape-font-specification:'Jost* Medium';text-align:end;letter-spacing:0.235423px;text-anchor:end;fill:#888a85;stroke-width:0.51238"
       id="path12866" />
    <path
       d="m 22.862689,2.7326034 v 9.1181726 h 1.537063 V 8.3988859 h 0.937873 l 2.305585,3.4518901 h 1.862714 L 26.926782,8.2295535 c 1.263524,-0.3777444 2.032066,-1.3416647 2.032066,-2.6703157 0,-1.7063954 -1.302605,-2.8266344 -3.282558,-2.8266344 z m 2.748475,1.328651 c 1.055112,0 1.758508,0.5601098 1.758508,1.5370631 0,0.9769339 -0.703396,1.52403 -1.758508,1.52403 H 24.399752 V 4.0612544 Z"
       style="font-weight:500;font-size:6.72636px;line-height:1.25;font-family:'Jost*';-inkscape-font-specification:'Jost* Medium';text-align:end;letter-spacing:0.235423px;text-anchor:end;fill:#888a85;stroke-width:0.51238"
       id="path12868" />
    <path
       d="m 29.683394,12.997061 -0.820635,1.133253 c 0.325651,0.286571 1.094173,0.677349 1.914808,0.677349 1.380763,0 2.396777,-0.664316 2.396777,-2.214412 V 2.7326034 h -1.576143 v 9.5871096 c 0,0.833667 -0.48195,1.120239 -0.872728,1.120239 -0.44289,0 -0.820634,-0.169255 -1.042079,-0.442891 z"
       style="font-weight:500;font-size:6.72636px;line-height:1.25;font-family:'Jost*';-inkscape-font-specification:'Jost* Medium';text-align:end;letter-spacing:0.235423px;text-anchor:end;fill:#888a85;stroke-width:0.51238"
       id="path12870" />
    <path
       d="m 35.128231,7.2916799 c 0,2.7224281 1.992967,4.7544941 4.728428,4.7544941 2.748475,0 4.741442,-2.032066 4.741442,-4.7544941 0,-2.7224284 -2.019013,-4.7284089 -4.741442,-4.7284089 -2.696381,0 -4.728428,2.0059805 -4.728428,4.7284089 z m 1.628255,0 c 0,-1.8757278 1.289572,-3.2434585 3.100173,-3.2434585 1.836668,0 3.100173,1.3677307 3.100173,3.2434585 0,1.8757472 -1.276538,3.2434781 -3.100173,3.2434781 -1.810601,0 -3.100173,-1.3677309 -3.100173,-3.2434781 z"
       style="font-weight:500;font-size:6.72636px;line-height:1.25;font-family:'Jost*';-inkscape-font-specification:'Jost* Medium';text-align:end;letter-spacing:0.235423px;text-anchor:end;fill:#888a85;stroke-width:0.51238"
       id="path12872" />
    <path
       d="m 46.565021,2.7326034 v 9.1181726 h 1.537063 V 8.3988859 h 0.937874 l 2.305604,3.4518901 h 1.862695 L 50.629134,8.2295535 c 1.263505,-0.3777444 2.032046,-1.3416647 2.032046,-2.6703157 0,-1.7063954 -1.302604,-2.8266344 -3.282557,-2.8266344 z m 2.748475,1.328651 c 1.055113,0 1.758509,0.5601098 1.758509,1.5370631 0,0.9769339 -0.703396,1.52403 -1.758509,1.52403 H 48.102084 V 4.0612544 Z"
       style="font-weight:500;font-size:6.72636px;line-height:1.25;font-family:'Jost*';-inkscape-font-specification:'Jost* Medium';text-align:end;letter-spacing:0.235423px;text-anchor:end;fill:#888a85;stroke-width:0.51238"
       id="path12874" />
    <path
       d="m 54.771386,2.7326034 v 9.1181726 h 1.56311 V 2.7326034 Z"
       style="font-weight:500;font-size:6.72636px;line-height:1.25;font-family:'Jost*';-inkscape-font-specification:'Jost* Medium';text-align:end;letter-spacing:0.235423px;text-anchor:end;fill:#888a85;stroke-width:0.51238"
       id="path12876" />
    <path
       d="m 58.809413,2.7326034 v 9.1181726 h 5.549063 V 10.496078 H 60.32043 V 7.630364 h 3.777541 V 6.301713 H 60.32043 V 4.0873011 h 4.038046 V 2.7326034 Z"
       style="font-weight:500;font-size:6.72636px;line-height:1.25;font-family:'Jost*';-inkscape-font-specification:'Jost* Medium';text-align:end;letter-spacing:0.235423px;text-anchor:end;fill:#888a85;stroke-width:0.51238"
       id="path12878" />
  </g>
</svg>
